<svg width="94" height="64" viewBox="0 0 94 64" fill="none" xmlns="http://www.w3.org/2000/svg">
<g clip-path="url(#clip0_2601_279)">
<path d="M49.5609 29.0372L93.9943 25.2126V61.558C93.9943 62.241 91.8964 64.4265 90.816 63.9199H2.75529C1.84639 64.2273 0 62.0702 0 61.558V25.2126L44.4333 29.0372V22.8734L45.1422 22.3043C45.5309 22.1848 45.9425 22.2474 46.3369 22.2132C47.3944 22.1222 48.9035 22.0026 49.5609 22.8734V29.0372Z" fill="#389A08"/>
<path d="M56.3977 6.93195H91.6449C92.1479 6.93195 93.9943 8.77028 93.9943 9.27112V21.8093L50.4127 25.6396L50.3555 21.8719C49.9153 21.1719 44.0789 21.1719 43.6388 21.8719L43.5816 25.6396L0 21.8093V9.27112C0 8.77028 1.84639 6.93195 2.34943 6.93195H37.5966C37.8538 5.36681 36.882 1.09824 38.4483 0.341283C39.2715 -0.0571167 52.3048 -0.0684996 54.0711 0.107934C57.9297 0.48926 55.9461 4.04071 56.3977 6.93195ZM54.2655 6.93195C54.054 5.77659 54.8657 2.31621 53.5624 1.88935L40.1346 2.01456L39.7345 6.93195H54.2598H54.2655Z" fill="#389A08"/>
</g>
<defs>
<clipPath id="clip0_2601_279">
<rect width="94" height="64" fill="white"/>
</clipPath>
</defs>
</svg>
