<svg width="64" height="64" viewBox="0 0 64 64" fill="none" xmlns="http://www.w3.org/2000/svg">
<g clip-path="url(#clip0_2598_247)">
<path d="M62.286 34.0352C56.3154 54.6238 29.324 62.476 12.2051 49.9992C7.06627 46.2544 2.66214 40.25 1.36719 34.0352H62.286Z" fill="#389A08"/>
<path d="M64 24.833L63.3148 31.3096H0.342592L0 24.833H64Z" fill="#389A08"/>
<path d="M34.5647 23.4683L49.6215 4.89255C54.0428 0.860221 61.9074 7.16515 56.1285 12.7362C52.2566 16.4702 47.6973 19.5561 43.9741 23.4683H34.5625H34.5647Z" fill="#389A08"/>
<path d="M43.993 55.2531C45.2901 57.6416 50.4871 61.9958 45.9602 63.6204C37.3308 63.0452 27.0918 64.6397 18.652 63.6912C17.2988 63.5388 16.2043 63.1611 15.797 61.7383C15.6053 60.4958 18.9278 57.0794 19.7379 55.8862C27.7834 58.1803 36.1198 58.2554 43.9908 55.251L43.993 55.2531Z" fill="#389A08"/>
<path d="M13.2626 20.9987C11.6445 22.649 8.80679 17.8656 8.5827 16.4621C7.78332 11.4576 12.5387 8.98117 12.6529 5.8802C12.7261 3.92949 9.14722 2.13115 10.0888 0.626809C11.1166 -1.01488 13.1032 1.08391 13.8336 2.026C18.8518 8.50261 9.9703 11.0671 11.3816 16.402C11.7457 17.7797 14.6567 19.5759 13.2626 20.9987Z" fill="#389A08"/>
<path d="M27.6712 21.0348C25.1222 22.2409 22.7435 17.3952 22.6745 15.3672C22.5496 11.6697 26.8632 8.36057 26.9472 5.8562C27.014 3.83896 23.2994 2.52132 24.4629 0.626407C26.01 -1.89084 29.6707 3.86471 29.7505 5.59868C29.9013 8.92711 25.4605 12.0345 25.3377 15.1505C25.2537 17.2772 28.4383 18.7622 27.6734 21.0327L27.6712 21.0348Z" fill="#389A08"/>
<path d="M20.4474 20.9984L19.3894 21.3417C16.5517 19.8696 15.093 16.3587 15.901 13.2341C16.4418 11.1418 19.7105 7.79834 19.844 5.89055C19.9798 3.94628 16.1402 2.4355 17.2671 0.630721C18.784 -1.79425 22.4059 3.59649 22.5697 5.2768C23.0006 9.68253 16.5603 12.5818 18.8831 17.1055C19.4368 18.1828 21.5958 19.8502 20.4452 21.0005L20.4474 20.9984Z" fill="#389A08"/>
</g>
<defs>
<clipPath id="clip0_2598_247">
<rect width="64" height="64" fill="white"/>
</clipPath>
</defs>
</svg>
